<svg id="kity_svg_6" xmlns="http://www.w3.org/2000/svg" xmlns:xlink="http://www.w3.org/1999/xlink" version="1.1" width="1410" height="1660" style="background: rgb(251, 251, 251); visibility: visible;" viewBox="0 0 1410 1660"><defs id="kity_defs_7"><linearGradient id="kity_linearGradient_17" x1="0" y1="0" x2="0" y2="1"><stop id="kity_stop_18" offset="0" stop-color="rgb(255, 255, 255)"></stop><stop id="kity_stop_19" offset="1" stop-color="rgb(204, 204, 204)"></stop></linearGradient><marker id="kity_marker_2" orient="auto" refX="6" refY="0" viewBox="-7 -7 14 14" markerWidth="7" markerHeight="7" markerUnits="userSpaceOnUse"><path id="kity_path_3" fill="rgb(115, 161, 191)" stroke="none" d="M6,0A6,6,0,1,1,-6,0A6,6,0,1,1,6,0"></path></marker></defs><g id="kity_g_8"><g id="minder1" text-rendering="optimize-speed"><g id="minder_connect_group1"><path id="kity_path_31" fill="none" stroke="rgb(115, 161, 191)" stroke-width="1" d="M726.5000317970898,775.4999973932901A198,509,0,0,1,924.5000317970898,266.4999973932901"></path><path id="kity_path_33" fill="none" stroke="rgb(115, 161, 191)" stroke-width="1" d="M1033.5000317970898,266.4999973932901C1048.5000317970898,266.4999973932901,1048.5000317970898,163.49999739329007,1063.5000317970898,163.49999739329007L1141.5000317970898,163.49999739329007"></path><path id="kity_path_35" fill="none" stroke="rgb(115, 161, 191)" stroke-width="1" d="M1033.5000317970898,266.4999973932901C1048.5000317970898,266.4999973932901,1048.5000317970898,215.49999739329007,1063.5000317970898,215.49999739329007L1141.5000317970898,215.49999739329007"></path><path id="kity_path_37" fill="none" stroke="rgb(115, 161, 191)" stroke-width="1" d="M1033.5000317970898,266.4999973932901C1048.5000317970898,266.4999973932901,1048.5000317970898,267.4999973932901,1063.5000317970898,267.4999973932901L1165.5000317970898,267.4999973932901"></path><path id="kity_path_39" fill="none" stroke="rgb(115, 161, 191)" stroke-width="1" d="M1033.5000317970898,266.4999973932901C1043.0000317970898,266.4999973932901,1043.0000317970898,357.4999973932901,1052.5000317970898,357.4999973932901L1154.5000317970898,357.4999973932901"></path><path id="kity_path_41" fill="none" stroke="rgb(115, 161, 191)" stroke-width="1" d="M1154.5000317970898,357.4999973932901C1169.5000317970898,357.4999973932901,1169.5000317970898,279.4999973932901,1184.5000317970898,279.4999973932901L1250.5000317970898,279.4999973932901"></path><path id="kity_path_43" fill="none" stroke="rgb(115, 161, 191)" stroke-width="1" d="M1154.5000317970898,357.4999973932901C1169.5000317970898,357.4999973932901,1169.5000317970898,331.4999973932901,1184.5000317970898,331.4999973932901L1250.5000317970898,331.4999973932901"></path><path id="kity_path_45" fill="none" stroke="rgb(115, 161, 191)" stroke-width="1" d="M1154.5000317970898,357.4999973932901C1169.5000317970898,357.4999973932901,1169.5000317970898,383.4999973932901,1184.5000317970898,383.4999973932901L1262.5000317970898,383.4999973932901"></path><path id="kity_path_47" fill="none" stroke="rgb(115, 161, 191)" stroke-width="1" d="M1154.5000317970898,357.4999973932901C1169.5000317970898,357.4999973932901,1169.5000317970898,435.4999973932901,1184.5000317970898,435.4999973932901L1262.5000317970898,435.4999973932901"></path><path id="kity_path_49" fill="none" stroke="rgb(115, 161, 191)" stroke-width="1" d="M726.5000317970898,775.4999973932901A335,178,0,0,1,1061.5000317970898,597.4999973932901"></path><path id="kity_path_51" fill="none" stroke="rgb(115, 161, 191)" stroke-width="1" d="M1142.5000317970898,597.4999973932901C1157.5000317970898,597.4999973932901,1157.5000317970898,507.4999973932901,1172.5000317970898,507.4999973932901L1250.5000317970898,507.4999973932901"></path><path id="kity_path_53" fill="none" stroke="rgb(115, 161, 191)" stroke-width="1" d="M1142.5000317970898,597.4999973932901C1157.5000317970898,597.4999973932901,1157.5000317970898,559.4999973932901,1172.5000317970898,559.4999973932901L1250.5000317970898,559.4999973932901"></path><path id="kity_path_55" fill="none" stroke="rgb(115, 161, 191)" stroke-width="1" d="M1142.5000317970898,597.4999973932901C1157.5000317970898,597.4999973932901,1157.5000317970898,611.4999973932901,1172.5000317970898,611.4999973932901L1274.5000317970898,611.4999973932901"></path><path id="kity_path_57" fill="none" stroke="rgb(115, 161, 191)" stroke-width="1" d="M1142.5000317970898,597.4999973932901C1157.5000317970898,597.4999973932901,1157.5000317970898,663.4999973932901,1172.5000317970898,663.4999973932901L1274.5000317970898,663.4999973932901"></path><path id="kity_path_59" fill="none" stroke="rgb(115, 161, 191)" stroke-width="1" d="M1142.5000317970898,597.4999973932901C1157.5000317970898,597.4999973932901,1157.5000317970898,715.4999973932901,1172.5000317970898,715.4999973932901L1226.5000317970898,715.4999973932901"></path><path id="kity_path_61" fill="none" stroke="rgb(115, 161, 191)" stroke-width="1" d="M726.5000317970898,775.4999973932901A178,94,0,0,0,904.5000317970898,869.4999973932901"></path><path id="kity_path_63" fill="none" stroke="rgb(115, 161, 191)" stroke-width="1" d="M999.5000317970898,869.4999973932901C1014.5000317970898,869.4999973932901,1014.5000317970898,753.4999973932901,1029.5000317970898,753.4999973932901L1107.5000317970898,753.4999973932901"></path><path id="kity_path_65" fill="none" stroke="rgb(115, 161, 191)" stroke-width="1" d="M999.5000317970898,869.4999973932901C1014.5000317970898,869.4999973932901,1014.5000317970898,805.4999973932901,1029.5000317970898,805.4999973932901L1107.5000317970898,805.4999973932901"></path><path id="kity_path_67" fill="none" stroke="rgb(115, 161, 191)" stroke-width="1" d="M999.5000317970898,869.4999973932901C1014.5000317970898,869.4999973932901,1014.5000317970898,857.4999973932901,1029.5000317970898,857.4999973932901L1131.5000317970898,857.4999973932901"></path><path id="kity_path_69" fill="none" stroke="rgb(115, 161, 191)" stroke-width="1" d="M999.5000317970898,869.4999973932901C1014.5000317970898,869.4999973932901,1014.5000317970898,909.4999973932901,1029.5000317970898,909.4999973932901L1131.5000317970898,909.4999973932901"></path><path id="kity_path_71" fill="none" stroke="rgb(115, 161, 191)" stroke-width="1" d="M999.5000317970898,869.4999973932901C1014.5000317970898,869.4999973932901,1014.5000317970898,961.4999973932901,1029.5000317970898,961.4999973932901L1107.5000317970898,961.4999973932901"></path><path id="kity_path_73" fill="none" stroke="rgb(115, 161, 191)" stroke-width="1" d="M999.5000317970898,869.4999973932901C1014.5000317970898,869.4999973932901,1014.5000317970898,1013.4999973932901,1029.5000317970898,1013.4999973932901L1083.5000317970898,1013.4999973932901"></path><path id="kity_path_75" fill="none" stroke="rgb(115, 161, 191)" stroke-width="1" d="M726.5000317970898,775.4999973932901A311,461,0,0,0,1037.5000317970898,1236.49999739329"></path><path id="kity_path_77" fill="none" stroke="rgb(115, 161, 191)" stroke-width="1" d="M1174.5000317970898,1236.49999739329C1189.5000317970898,1236.49999739329,1189.5000317970898,1107.49999739329,1204.5000317970898,1107.49999739329L1282.5000317970898,1107.49999739329"></path><path id="kity_path_79" fill="none" stroke="rgb(115, 161, 191)" stroke-width="1" d="M1282.5000317970898,1107.49999739329C1297.5000317970898,1107.49999739329,1297.5000317970898,1081.49999739329,1312.5000317970898,1081.49999739329L1354.5000317970898,1081.49999739329"></path><path id="kity_path_81" fill="none" stroke="rgb(115, 161, 191)" stroke-width="1" d="M1282.5000317970898,1107.49999739329C1297.5000317970898,1107.49999739329,1297.5000317970898,1133.49999739329,1312.5000317970898,1133.49999739329L1378.5000317970898,1133.49999739329"></path><path id="kity_path_83" fill="none" stroke="rgb(115, 161, 191)" stroke-width="1" d="M1174.5000317970898,1236.49999739329C1189.5000317970898,1236.49999739329,1189.5000317970898,1211.49999739329,1204.5000317970898,1211.49999739329L1270.5000317970898,1211.49999739329"></path><path id="kity_path_85" fill="none" stroke="rgb(115, 161, 191)" stroke-width="1" d="M1270.5000317970898,1211.49999739329C1285.5000317970898,1211.49999739329,1285.5000317970898,1185.49999739329,1300.5000317970898,1185.49999739329L1354.5000317970898,1185.49999739329"></path><path id="kity_path_87" fill="none" stroke="rgb(115, 161, 191)" stroke-width="1" d="M1270.5000317970898,1211.49999739329C1285.5000317970898,1211.49999739329,1285.5000317970898,1237.49999739329,1300.5000317970898,1237.49999739329L1390.5000317970898,1237.49999739329"></path><path id="kity_path_89" fill="none" stroke="rgb(115, 161, 191)" stroke-width="1" d="M1174.5000317970898,1236.49999739329C1189.5000317970898,1236.49999739329,1189.5000317970898,1289.49999739329,1204.5000317970898,1289.49999739329L1258.5000317970898,1289.49999739329"></path><path id="kity_path_91" fill="none" stroke="rgb(115, 161, 191)" stroke-width="1" d="M1174.5000317970898,1236.49999739329C1189.5000317970898,1236.49999739329,1189.5000317970898,1393.49999739329,1204.5000317970898,1393.49999739329L1258.5000317970898,1393.49999739329"></path><path id="kity_path_93" fill="none" stroke="rgb(115, 161, 191)" stroke-width="1" d="M1258.5000317970898,1393.49999739329C1273.5000317970898,1393.49999739329,1273.5000317970898,1341.49999739329,1288.5000317970898,1341.49999739329L1378.5000317970898,1341.49999739329"></path><path id="kity_path_95" fill="none" stroke="rgb(115, 161, 191)" stroke-width="1" d="M1258.5000317970898,1393.49999739329C1273.5000317970898,1393.49999739329,1273.5000317970898,1393.49999739329,1288.5000317970898,1393.49999739329L1378.5000317970898,1393.49999739329"></path><path id="kity_path_97" fill="none" stroke="rgb(115, 161, 191)" stroke-width="1" d="M1258.5000317970898,1393.49999739329C1273.5000317970898,1393.49999739329,1273.5000317970898,1445.49999739329,1288.5000317970898,1445.49999739329L1366.5000317970898,1445.49999739329"></path><path id="kity_path_99" fill="none" stroke="rgb(115, 161, 191)" stroke-width="1" d="M726.5000317970898,775.4999973932901A198,575,0,0,0,528.5000317970898,200.49999739329007"></path><path id="kity_path_101" fill="none" stroke="rgb(115, 161, 191)" stroke-width="1" d="M447.50003179708983,200.49999739329007C432.50003179708983,200.49999739329007,432.50003179708983,45.49999739329007,417.50003179708983,45.49999739329007L339.50003179708983,45.49999739329007"></path><path id="kity_path_103" fill="none" stroke="rgb(115, 161, 191)" stroke-width="1" d="M447.50003179708983,200.49999739329007C432.50003179708983,200.49999739329007,432.50003179708983,97.49999739329007,417.50003179708983,97.49999739329007L339.50003179708983,97.49999739329007"></path><path id="kity_path_105" fill="none" stroke="rgb(115, 161, 191)" stroke-width="1" d="M447.50003179708983,200.49999739329007C432.50003179708983,200.49999739329007,432.50003179708983,149.49999739329007,417.50003179708983,149.49999739329007L339.50003179708983,149.49999739329007"></path><path id="kity_path_107" fill="none" stroke="rgb(115, 161, 191)" stroke-width="1" d="M447.50003179708983,200.49999739329007C413.50003179708983,200.49999739329007,413.50003179708983,201.49999739329007,379.50003179708983,201.49999739329007L325.50003179708983,201.49999739329007"></path><path id="kity_path_109" fill="none" stroke="rgb(115, 161, 191)" stroke-width="1" d="M325.50003179708983,201.49999739329007C310.50003179708983,201.49999739329007,310.50003179708983,175.49999739329007,295.50003179708983,175.49999739329007L243.50003179708983,175.49999739329007"></path><path id="kity_path_111" fill="none" stroke="rgb(115, 161, 191)" stroke-width="1" d="M325.50003179708983,201.49999739329007C310.50003179708983,201.49999739329007,310.50003179708983,227.49999739329007,295.50003179708983,227.49999739329007L243.50003179708983,227.49999739329007"></path><path id="kity_path_113" fill="none" stroke="rgb(115, 161, 191)" stroke-width="1" d="M447.50003179708983,200.49999739329007C383.50003179708983,200.49999739329007,383.50003179708983,342.4999973932901,319.50003179708983,342.4999973932901L265.50003179708983,342.4999973932901"></path><path id="kity_path_115" fill="none" stroke="rgb(115, 161, 191)" stroke-width="1" d="M265.50003179708983,342.4999973932901C250.50003179708983,342.4999973932901,250.50003179708983,264.4999973932901,235.50003179708983,264.4999973932901L99.50003179708983,264.4999973932901"></path><path id="kity_path_117" fill="none" stroke="rgb(115, 161, 191)" stroke-width="1" d="M265.50003179708983,342.4999973932901C250.50003179708983,342.4999973932901,250.50003179708983,316.4999973932901,235.50003179708983,316.4999973932901L157.50003179708983,316.4999973932901"></path><path id="kity_path_119" fill="none" stroke="rgb(115, 161, 191)" stroke-width="1" d="M265.50003179708983,342.4999973932901C250.50003179708983,342.4999973932901,250.50003179708983,368.4999973932901,235.50003179708983,368.4999973932901L157.50003179708983,368.4999973932901"></path><path id="kity_path_121" fill="none" stroke="rgb(115, 161, 191)" stroke-width="1" d="M265.50003179708983,342.4999973932901C250.50003179708983,342.4999973932901,250.50003179708983,420.4999973932901,235.50003179708983,420.4999973932901L157.50003179708983,420.4999973932901"></path><path id="kity_path_123" fill="none" stroke="rgb(115, 161, 191)" stroke-width="1" d="M726.5000317970898,775.4999973932901A198,19,0,0,0,528.5000317970898,756.4999973932901"></path><path id="kity_path_125" fill="none" stroke="rgb(115, 161, 191)" stroke-width="1" d="M433.50003179708983,756.4999973932901C418.50003179708983,756.4999973932901,418.50003179708983,523.4999973932901,403.50003179708983,523.4999973932901L325.50003179708983,523.4999973932901"></path><path id="kity_path_127" fill="none" stroke="rgb(115, 161, 191)" stroke-width="1" d="M433.50003179708983,756.4999973932901C418.50003179708983,756.4999973932901,418.50003179708983,627.4999973932901,403.50003179708983,627.4999973932901L349.50003179708983,627.4999973932901"></path><path id="kity_path_129" fill="none" stroke="rgb(115, 161, 191)" stroke-width="1" d="M349.50003179708983,627.4999973932901C334.50003179708983,627.4999973932901,334.50003179708983,575.4999973932901,319.50003179708983,575.4999973932901L241.50003179708983,575.4999973932901"></path><path id="kity_path_131" fill="none" stroke="rgb(115, 161, 191)" stroke-width="1" d="M349.50003179708983,627.4999973932901C334.50003179708983,627.4999973932901,334.50003179708983,627.4999973932901,319.50003179708983,627.4999973932901L241.50003179708983,627.4999973932901"></path><path id="kity_path_133" fill="none" stroke="rgb(115, 161, 191)" stroke-width="1" d="M349.50003179708983,627.4999973932901C334.50003179708983,627.4999973932901,334.50003179708983,679.4999973932901,319.50003179708983,679.4999973932901L241.50003179708983,679.4999973932901"></path><path id="kity_path_135" fill="none" stroke="rgb(115, 161, 191)" stroke-width="1" d="M433.50003179708983,756.4999973932901C366.50003179708983,756.4999973932901,366.50003179708983,757.4999973932901,299.50003179708983,757.4999973932901L223.50003179708983,757.4999973932901"></path><path id="kity_path_137" fill="none" stroke="rgb(115, 161, 191)" stroke-width="1" d="M223.50003179708983,757.4999973932901C208.50003179708983,757.4999973932901,208.50003179708983,731.4999973932901,193.50003179708983,731.4999973932901L115.50003179708983,731.4999973932901"></path><path id="kity_path_139" fill="none" stroke="rgb(115, 161, 191)" stroke-width="1" d="M223.50003179708983,757.4999973932901C208.50003179708983,757.4999973932901,208.50003179708983,783.4999973932901,193.50003179708983,783.4999973932901L115.50003179708983,783.4999973932901"></path><path id="kity_path_141" fill="none" stroke="rgb(115, 161, 191)" stroke-width="1" d="M433.50003179708983,756.4999973932901C409.50003179708983,756.4999973932901,409.50003179708983,854.4999973932901,385.50003179708983,854.4999973932901L331.50003179708983,854.4999973932901"></path><path id="kity_path_143" fill="none" stroke="rgb(115, 161, 191)" stroke-width="1" d="M331.50003179708983,854.4999973932901C316.50003179708983,854.4999973932901,316.50003179708983,802.4999973932901,301.50003179708983,802.4999973932901L223.50003179708983,802.4999973932901"></path><path id="kity_path_145" fill="none" stroke="rgb(115, 161, 191)" stroke-width="1" d="M331.50003179708983,854.4999973932901C316.50003179708983,854.4999973932901,316.50003179708983,854.4999973932901,301.50003179708983,854.4999973932901L223.50003179708983,854.4999973932901"></path><path id="kity_path_147" fill="none" stroke="rgb(115, 161, 191)" stroke-width="1" d="M331.50003179708983,854.4999973932901C316.50003179708983,854.4999973932901,316.50003179708983,906.4999973932901,301.50003179708983,906.4999973932901L223.50003179708983,906.4999973932901"></path><path id="kity_path_149" fill="none" stroke="rgb(115, 161, 191)" stroke-width="1" d="M433.50003179708983,756.4999973932901C405.00003179708983,756.4999973932901,405.00003179708983,1012.4999973932901,376.50003179708983,1012.4999973932901L262.50003179708983,1012.4999973932901"></path><path id="kity_path_151" fill="none" stroke="rgb(115, 161, 191)" stroke-width="1" d="M262.50003179708983,1012.4999973932901C247.50003179708983,1012.4999973932901,247.50003179708983,986.4999973932901,232.50003179708983,986.4999973932901L106.50003179708983,986.4999973932901"></path><path id="kity_path_153" fill="none" stroke="rgb(115, 161, 191)" stroke-width="1" d="M262.50003179708983,1012.4999973932901C247.50003179708983,1012.4999973932901,247.50003179708983,1038.49999739329,232.50003179708983,1038.49999739329L156.50003179708983,1038.49999739329"></path><path id="kity_path_155" fill="none" stroke="rgb(115, 161, 191)" stroke-width="1" d="M726.5000317970898,775.4999973932901A198,576,0,0,1,528.5000317970898,1351.49999739329"></path><path id="kity_path_157" fill="none" stroke="rgb(115, 161, 191)" stroke-width="1" d="M433.50003179708983,1351.49999739329C418.50003179708983,1351.49999739329,418.50003179708983,1105.49999739329,403.50003179708983,1105.49999739329L325.50003179708983,1105.49999739329"></path><path id="kity_path_159" fill="none" stroke="rgb(115, 161, 191)" stroke-width="1" d="M433.50003179708983,1351.49999739329C418.50003179708983,1351.49999739329,418.50003179708983,1209.49999739329,403.50003179708983,1209.49999739329L325.50003179708983,1209.49999739329"></path><path id="kity_path_161" fill="none" stroke="rgb(115, 161, 191)" stroke-width="1" d="M325.50003179708983,1209.49999739329C310.50003179708983,1209.49999739329,310.50003179708983,1157.49999739329,295.50003179708983,1157.49999739329L193.50003179708983,1157.49999739329"></path><path id="kity_path_163" fill="none" stroke="rgb(115, 161, 191)" stroke-width="1" d="M325.50003179708983,1209.49999739329C310.50003179708983,1209.49999739329,310.50003179708983,1209.49999739329,295.50003179708983,1209.49999739329L193.50003179708983,1209.49999739329"></path><path id="kity_path_165" fill="none" stroke="rgb(115, 161, 191)" stroke-width="1" d="M325.50003179708983,1209.49999739329C310.50003179708983,1209.49999739329,310.50003179708983,1261.49999739329,295.50003179708983,1261.49999739329L166.50003179708983,1261.49999739329"></path><path id="kity_path_167" fill="none" stroke="rgb(115, 161, 191)" stroke-width="1" d="M433.50003179708983,1351.49999739329C320.00003179708983,1351.49999739329,320.00003179708983,1319.49999739329,206.50003179708983,1319.49999739329L128.50003179708983,1319.49999739329"></path><path id="kity_path_169" fill="none" stroke="rgb(115, 161, 191)" stroke-width="1" d="M128.50003179708983,1319.49999739329C113.50003179708983,1319.49999739329,113.50003179708983,1293.49999739329,98.50003179708983,1293.49999739329L44.50003179708983,1293.49999739329"></path><path id="kity_path_171" fill="none" stroke="rgb(115, 161, 191)" stroke-width="1" d="M128.50003179708983,1319.49999739329C113.50003179708983,1319.49999739329,113.50003179708983,1345.49999739329,98.50003179708983,1345.49999739329L20.500031797089832,1345.49999739329"></path><path id="kity_path_173" fill="none" stroke="rgb(115, 161, 191)" stroke-width="1" d="M433.50003179708983,1351.49999739329C337.00003179708983,1351.49999739329,337.00003179708983,1444.49999739329,240.50003179708983,1444.49999739329L162.50003179708983,1444.49999739329"></path><path id="kity_path_175" fill="none" stroke="rgb(115, 161, 191)" stroke-width="1" d="M162.50003179708983,1444.49999739329C147.50003179708983,1444.49999739329,147.50003179708983,1418.49999739329,132.50003179708983,1418.49999739329L30.500031797089832,1418.49999739329"></path><path id="kity_path_177" fill="none" stroke="rgb(115, 161, 191)" stroke-width="1" d="M162.50003179708983,1444.49999739329C147.50003179708983,1444.49999739329,147.50003179708983,1470.49999739329,132.50003179708983,1470.49999739329L66.50003179708983,1470.49999739329"></path><path id="kity_path_179" fill="none" stroke="rgb(115, 161, 191)" stroke-width="1" d="M433.50003179708983,1351.49999739329C355.00003179708983,1351.49999739329,355.00003179708983,1519.49999739329,276.50003179708983,1519.49999739329L198.50003179708983,1519.49999739329"></path><path id="kity_path_181" fill="none" stroke="rgb(115, 161, 191)" stroke-width="1" d="M433.50003179708983,1351.49999739329C360.00003179708983,1351.49999739329,360.00003179708983,1580.49999739329,286.50003179708983,1580.49999739329L208.50003179708983,1580.49999739329"></path><path id="kity_path_183" fill="none" stroke="rgb(115, 161, 191)" stroke-width="1" d="M433.50003179708983,1351.49999739329C358.00003179708983,1351.49999739329,358.00003179708983,1640.49999739329,282.50003179708983,1640.49999739329L204.50003179708983,1640.49999739329"></path></g><g id="minder_node1"><path id="node_outline1" fill="rgb(115, 161, 191)" stroke="rgb(57, 80, 96)" d="M651.5000317970898,755.4999973932901h150a5,5,0,0,1,5,5v30a5,5,0,0,1,-5,5h-150a5,5,0,0,1,-5,-5v-30a5,5,0,0,1,5,-5z" stroke-width="3"></path><g id="node_text1" fill="white"><text id="kity_text_22" text-rendering="inherit" font-size="16" dy=".8em" y="767.4999973932901" x="670.5000317970898">算法与数据结构</text></g></g><g id="kity_g_12"><path id="kity_path_13" fill="none" stroke="none" d="M670.5000317970898,775.4999973932901h0v0h0z"></path></g><g id="kity_g_14"><path id="kity_path_15" fill="none" stroke="none" d="M670.5000317970898,775.4999973932901h0v0h0z"></path><path id="kity_path_16" fill="none" stroke="none"></path></g><g id="minder_node2"><g id="node_expander9" style="cursor: pointer;"><path id="kity_path_440" fill="white" stroke="gray" d="M925.5000355561558,266.4999893029535A6,6,0,1,1,913.5000355561558,266.4999893029535A6,6,0,1,1,925.5000355561558,266.4999893029535"></path><path id="kity_path_441" fill="none" stroke="gray" d="M915.0000355561558,266.4999893029535L924.0000355561558,266.4999893029535"></path></g><path id="node_outline10" fill="rgb(238, 243, 246)" stroke="rgb(115, 161, 191)" d="M929.5000361839914,253.4999893029535h101a3,3,0,0,1,3,3v20a3,3,0,0,1,-3,3h-101a3,3,0,0,1,-3,-3v-20a3,3,0,0,1,3,-3z" stroke-width="1"></path><g id="node_text10" fill="black"><text id="kity_text_201" text-rendering="inherit" font-size="14" dy=".8em" y="259.4999893029535" x="946.5000361839914">1. 线性表</text></g></g><g id="minder_node3"><g id="node_expander1" display="none" style="cursor: pointer;"><path id="kity_path_416" fill="white" stroke="gray" d="M1073.5000381072343,149.49998744328866A6,6,0,1,1,1061.5000381072343,149.49998744328866A6,6,0,1,1,1073.5000381072343,149.49998744328866"></path><path id="kity_path_417" fill="none" stroke="gray"></path></g><path id="node_outline2" fill="none" stroke="none" d="M1078.5000383615475,138.49998744328866h58a5,5,0,0,1,5,5v12a5,5,0,0,1,-5,5h-58a5,5,0,0,1,-5,-5v-12a5,5,0,0,1,5,-5z"></path><g id="node_text2" fill="black"><text id="kity_text_185" text-rendering="inherit" font-size="12" dy=".8em" y="143.49998744328866" x="1083.5000383615475">基本概念</text></g></g><g id="minder_node4"><g id="node_expander2" display="none" style="cursor: pointer;"><path id="kity_path_419" fill="white" stroke="gray" d="M1073.5000381072343,201.4999882698063A6,6,0,1,1,1061.5000381072343,201.4999882698063A6,6,0,1,1,1073.5000381072343,201.4999882698063"></path><path id="kity_path_420" fill="none" stroke="gray"></path></g><path id="node_outline3" fill="none" stroke="none" d="M1078.5000383615475,190.4999882698063h58a5,5,0,0,1,5,5v12a5,5,0,0,1,-5,5h-58a5,5,0,0,1,-5,-5v-12a5,5,0,0,1,5,-5z"></path><g id="node_text3" fill="black"><text id="kity_text_187" text-rendering="inherit" font-size="12" dy=".8em" y="195.4999882698063" x="1083.5000383615475">基本操作</text></g></g><g id="minder_node5"><g id="node_expander3" display="none" style="cursor: pointer;"><path id="kity_path_422" fill="white" stroke="gray" d="M1073.5000381072343,253.49998909632404A6,6,0,1,1,1061.5000381072343,253.49998909632404A6,6,0,1,1,1073.5000381072343,253.49998909632404"></path><path id="kity_path_423" fill="none" stroke="gray"></path></g><path id="node_outline4" fill="none" stroke="none" d="M1078.5000383615475,242.49998909632404h82a5,5,0,0,1,5,5v12a5,5,0,0,1,-5,5h-82a5,5,0,0,1,-5,-5v-12a5,5,0,0,1,5,-5z"></path><g id="node_text4" fill="black"><text id="kity_text_189" text-rendering="inherit" font-size="12" dy=".8em" y="247.49998909632404" x="1083.5000383615475">顺序存储结构</text></g></g><g id="minder_node6"><g id="node_expander8" style="cursor: pointer;"><path id="kity_path_437" fill="white" stroke="gray" d="M1062.5000379323942,343.49999052683546A6,6,0,1,1,1050.5000379323942,343.49999052683546A6,6,0,1,1,1062.5000379323942,343.49999052683546"></path><path id="kity_path_438" fill="none" stroke="gray" d="M1052.0000379323942,343.49999052683546L1061.0000379323942,343.49999052683546"></path></g><path id="node_outline9" fill="none" stroke="none" d="M1067.5000381867073,332.49999052683546h82a5,5,0,0,1,5,5v12a5,5,0,0,1,-5,5h-82a5,5,0,0,1,-5,-5v-12a5,5,0,0,1,5,-5z"></path><g id="node_text9" fill="black"><text id="kity_text_199" text-rendering="inherit" font-size="12" dy=".8em" y="337.49999052683546" x="1072.5000381867073">链式存储结构</text></g></g><g id="minder_node7"><g id="node_expander4" display="none" style="cursor: pointer;"><path id="kity_path_425" fill="white" stroke="gray" d="M1194.5000400304775,265.49998928705895A6,6,0,1,1,1182.5000400304775,265.49998928705895A6,6,0,1,1,1194.5000400304775,265.49998928705895"></path><path id="kity_path_426" fill="none" stroke="gray"></path></g><path id="node_outline5" fill="none" stroke="none" d="M1199.5000402847907,254.49998928705895h46a5,5,0,0,1,5,5v12a5,5,0,0,1,-5,5h-46a5,5,0,0,1,-5,-5v-12a5,5,0,0,1,5,-5z"></path><g id="node_text5" fill="black"><text id="kity_text_191" text-rendering="inherit" font-size="12" dy=".8em" y="259.49998928705895" x="1204.5000402847907">单链表</text></g></g><g id="minder_node8"><g id="node_expander5" display="none" style="cursor: pointer;"><path id="kity_path_428" fill="white" stroke="gray" d="M1194.5000400304775,317.49999011357664A6,6,0,1,1,1182.5000400304775,317.49999011357664A6,6,0,1,1,1194.5000400304775,317.49999011357664"></path><path id="kity_path_429" fill="none" stroke="gray"></path></g><path id="node_outline6" fill="none" stroke="none" d="M1199.5000402847907,306.49999011357664h46a5,5,0,0,1,5,5v12a5,5,0,0,1,-5,5h-46a5,5,0,0,1,-5,-5v-12a5,5,0,0,1,5,-5z"></path><g id="node_text6" fill="black"><text id="kity_text_193" text-rendering="inherit" font-size="12" dy=".8em" y="311.49999011357664" x="1204.5000402847907">双链表</text></g></g><g id="minder_node9"><g id="node_expander6" display="none" style="cursor: pointer;"><path id="kity_path_431" fill="white" stroke="gray" d="M1194.5000400304775,369.4999909400942A6,6,0,1,1,1182.5000400304775,369.4999909400942A6,6,0,1,1,1194.5000400304775,369.4999909400942"></path><path id="kity_path_432" fill="none" stroke="gray"></path></g><path id="node_outline7" fill="none" stroke="none" d="M1199.5000402847907,358.4999909400942h58a5,5,0,0,1,5,5v12a5,5,0,0,1,-5,5h-58a5,5,0,0,1,-5,-5v-12a5,5,0,0,1,5,-5z"></path><g id="node_text7" fill="black"><text id="kity_text_195" text-rendering="inherit" font-size="12" dy=".8em" y="363.4999909400942" x="1204.5000402847907">循环链表</text></g></g><g id="minder_node10"><g id="node_expander7" display="none" style="cursor: pointer;"><path id="kity_path_434" fill="white" stroke="gray" d="M1194.5000400304775,421.499991766612A6,6,0,1,1,1182.5000400304775,421.499991766612A6,6,0,1,1,1194.5000400304775,421.499991766612"></path><path id="kity_path_435" fill="none" stroke="gray"></path></g><path id="node_outline8" fill="none" stroke="none" d="M1199.5000402847907,410.499991766612h58a5,5,0,0,1,5,5v12a5,5,0,0,1,-5,5h-58a5,5,0,0,1,-5,-5v-12a5,5,0,0,1,5,-5z"></path><g id="node_text8" fill="black"><text id="kity_text_197" text-rendering="inherit" font-size="12" dy=".8em" y="415.499991766612" x="1204.5000402847907">静态链表</text></g></g><g id="minder_node11"><g id="node_expander15" style="cursor: pointer;"><path id="kity_path_458" fill="white" stroke="gray" d="M1062.500037733712,597.4999945640565A6,6,0,1,1,1050.500037733712,597.4999945640565A6,6,0,1,1,1062.500037733712,597.4999945640565"></path><path id="kity_path_459" fill="none" stroke="gray" d="M1052.000037733712,597.4999945640565L1061.000037733712,597.4999945640565"></path></g><path id="node_outline16" fill="rgb(238, 243, 246)" stroke="rgb(115, 161, 191)" d="M1066.5000383615475,584.4999945640565h73a3,3,0,0,1,3,3v20a3,3,0,0,1,-3,3h-73a3,3,0,0,1,-3,-3v-20a3,3,0,0,1,3,-3z" stroke-width="1"></path><g id="node_text16" fill="black"><text id="kity_text_213" text-rendering="inherit" font-size="14" dy=".8em" y="590.4999945640565" x="1083.5000383615475">2. 栈</text></g></g><g id="minder_node12"><g id="node_expander10" display="none" style="cursor: pointer;"><path id="kity_path_443" fill="white" stroke="gray" d="M1182.5000398397426,493.4999929110211A6,6,0,1,1,1170.5000398397426,493.4999929110211A6,6,0,1,1,1182.5000398397426,493.4999929110211"></path><path id="kity_path_444" fill="none" stroke="gray"></path></g><path id="node_outline11" fill="none" stroke="none" d="M1187.5000400940557,482.4999929110211h58a5,5,0,0,1,5,5v12a5,5,0,0,1,-5,5h-58a5,5,0,0,1,-5,-5v-12a5,5,0,0,1,5,-5z"></path><g id="node_text11" fill="black"><text id="kity_text_203" text-rendering="inherit" font-size="12" dy=".8em" y="487.4999929110211" x="1192.5000400940557">基本概念</text></g></g><g id="minder_node13"><g id="node_expander11" display="none" style="cursor: pointer;"><path id="kity_path_446" fill="white" stroke="gray" d="M1182.5000398397426,545.4999937375387A6,6,0,1,1,1170.5000398397426,545.4999937375387A6,6,0,1,1,1182.5000398397426,545.4999937375387"></path><path id="kity_path_447" fill="none" stroke="gray"></path></g><path id="node_outline12" fill="none" stroke="none" d="M1187.5000400940557,534.4999937375387h58a5,5,0,0,1,5,5v12a5,5,0,0,1,-5,5h-58a5,5,0,0,1,-5,-5v-12a5,5,0,0,1,5,-5z"></path><g id="node_text12" fill="black"><text id="kity_text_205" text-rendering="inherit" font-size="12" dy=".8em" y="539.4999937375387" x="1192.5000400940557">基础操作</text></g></g><g id="minder_node14"><g id="node_expander12" display="none" style="cursor: pointer;"><path id="kity_path_449" fill="white" stroke="gray" d="M1182.5000398397426,597.4999945640565A6,6,0,1,1,1170.5000398397426,597.4999945640565A6,6,0,1,1,1182.5000398397426,597.4999945640565"></path><path id="kity_path_450" fill="none" stroke="gray"></path></g><path id="node_outline13" fill="none" stroke="none" d="M1187.5000400940557,586.4999945640565h82a5,5,0,0,1,5,5v12a5,5,0,0,1,-5,5h-82a5,5,0,0,1,-5,-5v-12a5,5,0,0,1,5,-5z"></path><g id="node_text13" fill="black"><text id="kity_text_207" text-rendering="inherit" font-size="12" dy=".8em" y="591.4999945640565" x="1192.5000400940557">顺序存储结构</text></g></g><g id="minder_node15"><g id="node_expander13" display="none" style="cursor: pointer;"><path id="kity_path_452" fill="white" stroke="gray" d="M1182.5000398397426,649.4999953905742A6,6,0,1,1,1170.5000398397426,649.4999953905742A6,6,0,1,1,1182.5000398397426,649.4999953905742"></path><path id="kity_path_453" fill="none" stroke="gray"></path></g><path id="node_outline14" fill="none" stroke="none" d="M1187.5000400940557,638.4999953905742h82a5,5,0,0,1,5,5v12a5,5,0,0,1,-5,5h-82a5,5,0,0,1,-5,-5v-12a5,5,0,0,1,5,-5z"></path><g id="node_text14" fill="black"><text id="kity_text_209" text-rendering="inherit" font-size="12" dy=".8em" y="643.4999953905742" x="1192.5000400940557">链式存储结构</text></g></g><g id="minder_node16"><g id="node_expander14" display="none" style="cursor: pointer;"><path id="kity_path_455" fill="white" stroke="gray" d="M1182.5000398397426,701.4999962170918A6,6,0,1,1,1170.5000398397426,701.4999962170918A6,6,0,1,1,1182.5000398397426,701.4999962170918"></path><path id="kity_path_456" fill="none" stroke="gray"></path></g><path id="node_outline15" fill="none" stroke="none" d="M1187.5000400940557,690.4999962170918h34a5,5,0,0,1,5,5v12a5,5,0,0,1,-5,5h-34a5,5,0,0,1,-5,-5v-12a5,5,0,0,1,5,-5z"></path><g id="node_text15" fill="black"><text id="kity_text_211" text-rendering="inherit" font-size="12" dy=".8em" y="695.4999962170918" x="1192.5000400940557">应用</text></g></g><g id="minder_node17"><g id="node_expander22" style="cursor: pointer;"><path id="kity_path_479" fill="white" stroke="gray" d="M905.5000352382644,869.4999988873798A6,6,0,1,1,893.5000352382644,869.4999988873798A6,6,0,1,1,905.5000352382644,869.4999988873798"></path><path id="kity_path_480" fill="none" stroke="gray" d="M895.0000352382644,869.4999988873798L904.0000352382644,869.4999988873798"></path></g><path id="node_outline23" fill="rgb(238, 243, 246)" stroke="rgb(115, 161, 191)" d="M909.5000358661,856.4999988873798h87a3,3,0,0,1,3,3v20a3,3,0,0,1,-3,3h-87a3,3,0,0,1,-3,-3v-20a3,3,0,0,1,3,-3z" stroke-width="1"></path><g id="node_text23" fill="black"><text id="kity_text_227" text-rendering="inherit" font-size="14" dy=".8em" y="862.4999988873798" x="926.5000358661">3. 队列</text></g></g><g id="minder_node18"><g id="node_expander16" display="none" style="cursor: pointer;"><path id="kity_path_461" fill="white" stroke="gray" d="M1039.5000375668192,739.4999968210855A6,6,0,1,1,1027.5000375668192,739.4999968210855A6,6,0,1,1,1039.5000375668192,739.4999968210855"></path><path id="kity_path_462" fill="none" stroke="gray"></path></g><path id="node_outline17" fill="none" stroke="none" d="M1044.5000378211323,728.4999968210855h58a5,5,0,0,1,5,5v12a5,5,0,0,1,-5,5h-58a5,5,0,0,1,-5,-5v-12a5,5,0,0,1,5,-5z"></path><g id="node_text17" fill="black"><text id="kity_text_215" text-rendering="inherit" font-size="12" dy=".8em" y="733.4999968210855" x="1049.5000378211323">基本概念</text></g></g><g id="minder_node19"><g id="node_expander17" display="none" style="cursor: pointer;"><path id="kity_path_464" fill="white" stroke="gray" d="M1039.5000375668192,791.4999976476032A6,6,0,1,1,1027.5000375668192,791.4999976476032A6,6,0,1,1,1039.5000375668192,791.4999976476032"></path><path id="kity_path_465" fill="none" stroke="gray"></path></g><path id="node_outline18" fill="none" stroke="none" d="M1044.5000378211323,780.4999976476032h58a5,5,0,0,1,5,5v12a5,5,0,0,1,-5,5h-58a5,5,0,0,1,-5,-5v-12a5,5,0,0,1,5,-5z"></path><g id="node_text18" fill="black"><text id="kity_text_217" text-rendering="inherit" font-size="12" dy=".8em" y="785.4999976476032" x="1049.5000378211323">基础操作</text></g></g><g id="minder_node20"><g id="node_expander18" display="none" style="cursor: pointer;"><path id="kity_path_467" fill="white" stroke="gray" d="M1039.5000375668192,843.499998474121A6,6,0,1,1,1027.5000375668192,843.499998474121A6,6,0,1,1,1039.5000375668192,843.499998474121"></path><path id="kity_path_468" fill="none" stroke="gray"></path></g><path id="node_outline19" fill="none" stroke="none" d="M1044.5000378211323,832.499998474121h82a5,5,0,0,1,5,5v12a5,5,0,0,1,-5,5h-82a5,5,0,0,1,-5,-5v-12a5,5,0,0,1,5,-5z"></path><g id="node_text19" fill="black"><text id="kity_text_219" text-rendering="inherit" font-size="12" dy=".8em" y="837.499998474121" x="1049.5000378211323">顺序存储结构</text></g></g><g id="minder_node21"><g id="node_expander19" display="none" style="cursor: pointer;"><path id="kity_path_470" fill="white" stroke="gray" d="M1039.5000375668192,895.4999993006386A6,6,0,1,1,1027.5000375668192,895.4999993006386A6,6,0,1,1,1039.5000375668192,895.4999993006386"></path><path id="kity_path_471" fill="none" stroke="gray"></path></g><path id="node_outline20" fill="none" stroke="none" d="M1044.5000378211323,884.4999993006386h82a5,5,0,0,1,5,5v12a5,5,0,0,1,-5,5h-82a5,5,0,0,1,-5,-5v-12a5,5,0,0,1,5,-5z"></path><g id="node_text20" fill="black"><text id="kity_text_221" text-rendering="inherit" font-size="12" dy=".8em" y="889.4999993006386" x="1049.5000378211323">链式存储结构</text></g></g><g id="minder_node22"><g id="node_expander20" display="none" style="cursor: pointer;"><path id="kity_path_473" fill="white" stroke="gray" d="M1039.5000375668192,947.5000001271562A6,6,0,1,1,1027.5000375668192,947.5000001271562A6,6,0,1,1,1039.5000375668192,947.5000001271562"></path><path id="kity_path_474" fill="none" stroke="gray"></path></g><path id="node_outline21" fill="none" stroke="none" d="M1044.5000378211323,936.5000001271562h58a5,5,0,0,1,5,5v12a5,5,0,0,1,-5,5h-58a5,5,0,0,1,-5,-5v-12a5,5,0,0,1,5,-5z"></path><g id="node_text21" fill="black"><text id="kity_text_223" text-rendering="inherit" font-size="12" dy=".8em" y="941.5000001271562" x="1049.5000378211323">双端队列</text></g></g><g id="minder_node23"><g id="node_expander21" display="none" style="cursor: pointer;"><path id="kity_path_476" fill="white" stroke="gray" d="M1039.5000375668192,999.500000953674A6,6,0,1,1,1027.5000375668192,999.500000953674A6,6,0,1,1,1039.5000375668192,999.500000953674"></path><path id="kity_path_477" fill="none" stroke="gray"></path></g><path id="node_outline22" fill="none" stroke="none" d="M1044.5000378211323,988.500000953674h34a5,5,0,0,1,5,5v12a5,5,0,0,1,-5,5h-34a5,5,0,0,1,-5,-5v-12a5,5,0,0,1,5,-5z"></path><g id="node_text22" fill="black"><text id="kity_text_225" text-rendering="inherit" font-size="12" dy=".8em" y="993.500000953674" x="1049.5000378211323">应用</text></g></g><g id="minder_node24"><g id="node_expander34" style="cursor: pointer;"><path id="kity_path_515" fill="white" stroke="gray" d="M1038.5000373522423,1236.5000047206872A6,6,0,1,1,1026.5000373522423,1236.5000047206872A6,6,0,1,1,1038.5000373522423,1236.5000047206872"></path><path id="kity_path_516" fill="none" stroke="gray" d="M1028.0000373522423,1236.5000047206872L1037.0000373522423,1236.5000047206872"></path></g><path id="node_outline35" fill="rgb(238, 243, 246)" stroke="rgb(115, 161, 191)" d="M1042.5000379800779,1223.5000047206872h129a3,3,0,0,1,3,3v20a3,3,0,0,1,-3,3h-129a3,3,0,0,1,-3,-3v-20a3,3,0,0,1,3,-3z" stroke-width="1"></path><g id="node_text35" fill="black"><text id="kity_text_251" text-rendering="inherit" font-size="14" dy=".8em" y="1229.5000047206872" x="1059.5000379800779">4. 树与二叉树</text></g></g><g id="minder_node25"><g id="node_expander25" style="cursor: pointer;"><path id="kity_path_488" fill="white" stroke="gray" d="M1214.5000403483689,1093.5000024477636A6,6,0,1,1,1202.5000403483689,1093.5000024477636A6,6,0,1,1,1214.5000403483689,1093.5000024477636"></path><path id="kity_path_489" fill="none" stroke="gray" d="M1204.0000403483689,1093.5000024477636L1213.0000403483689,1093.5000024477636"></path></g><path id="node_outline26" fill="none" stroke="none" d="M1219.500040602682,1082.5000024477636h58a5,5,0,0,1,5,5v12a5,5,0,0,1,-5,5h-58a5,5,0,0,1,-5,-5v-12a5,5,0,0,1,5,-5z"></path><g id="node_text26" fill="black"><text id="kity_text_233" text-rendering="inherit" font-size="12" dy=".8em" y="1087.5000024477636" x="1224.500040602682">基本概念</text></g></g><g id="minder_node26"><g id="node_expander23" display="none" style="cursor: pointer;"><path id="kity_path_482" fill="white" stroke="gray" d="M1322.5000420649826,1067.5000020345049A6,6,0,1,1,1310.5000420649826,1067.5000020345049A6,6,0,1,1,1322.5000420649826,1067.5000020345049"></path><path id="kity_path_483" fill="none" stroke="gray"></path></g><path id="node_outline24" fill="none" stroke="none" d="M1327.5000423192957,1056.5000020345049h22a5,5,0,0,1,5,5v12a5,5,0,0,1,-5,5h-22a5,5,0,0,1,-5,-5v-12a5,5,0,0,1,5,-5z"></path><g id="node_text24" fill="black"><text id="kity_text_229" text-rendering="inherit" font-size="12" dy=".8em" y="1061.5000020345049" x="1332.5000423192957">树</text></g></g><g id="minder_node27"><g id="node_expander24" display="none" style="cursor: pointer;"><path id="kity_path_485" fill="white" stroke="gray" d="M1322.5000420649826,1119.5000028610225A6,6,0,1,1,1310.5000420649826,1119.5000028610225A6,6,0,1,1,1322.5000420649826,1119.5000028610225"></path><path id="kity_path_486" fill="none" stroke="gray"></path></g><path id="node_outline25" fill="none" stroke="none" d="M1327.5000423192957,1108.5000028610225h46a5,5,0,0,1,5,5v12a5,5,0,0,1,-5,5h-46a5,5,0,0,1,-5,-5v-12a5,5,0,0,1,5,-5z"></path><g id="node_text25" fill="black"><text id="kity_text_231" text-rendering="inherit" font-size="12" dy=".8em" y="1113.5000028610225" x="1332.5000423192957">二叉树</text></g></g><g id="minder_node28"><g id="node_expander28" style="cursor: pointer;"><path id="kity_path_497" fill="white" stroke="gray" d="M1214.5000403483689,1197.500004100799A6,6,0,1,1,1202.5000403483689,1197.500004100799A6,6,0,1,1,1214.5000403483689,1197.500004100799"></path><path id="kity_path_498" fill="none" stroke="gray" d="M1204.0000403483689,1197.500004100799L1213.0000403483689,1197.500004100799"></path></g><path id="node_outline29" fill="none" stroke="none" d="M1219.500040602682,1186.500004100799h46a5,5,0,0,1,5,5v12a5,5,0,0,1,-5,5h-46a5,5,0,0,1,-5,-5v-12a5,5,0,0,1,5,-5z"></path><g id="node_text29" fill="black"><text id="kity_text_239" text-rendering="inherit" font-size="12" dy=".8em" y="1191.500004100799" x="1224.500040602682">二叉树</text></g></g><g id="minder_node29"><g id="node_expander26" display="none" style="cursor: pointer;"><path id="kity_path_491" fill="white" stroke="gray" d="M1310.5000418742477,1171.5000036875401A6,6,0,1,1,1298.5000418742477,1171.5000036875401A6,6,0,1,1,1310.5000418742477,1171.5000036875401"></path><path id="kity_path_492" fill="none" stroke="gray"></path></g><path id="node_outline27" fill="none" stroke="none" d="M1315.5000421285608,1160.5000036875401h34a5,5,0,0,1,5,5v12a5,5,0,0,1,-5,5h-34a5,5,0,0,1,-5,-5v-12a5,5,0,0,1,5,-5z"></path><g id="node_text27" fill="black"><text id="kity_text_235" text-rendering="inherit" font-size="12" dy=".8em" y="1165.5000036875401" x="1320.5000421285608">遍历</text></g></g><g id="minder_node30"><g id="node_expander27" display="none" style="cursor: pointer;"><path id="kity_path_494" fill="white" stroke="gray" d="M1310.5000418742477,1223.5000045140578A6,6,0,1,1,1298.5000418742477,1223.5000045140578A6,6,0,1,1,1310.5000418742477,1223.5000045140578"></path><path id="kity_path_495" fill="none" stroke="gray"></path></g><path id="node_outline28" fill="none" stroke="none" d="M1315.5000421285608,1212.5000045140578h70a5,5,0,0,1,5,5v12a5,5,0,0,1,-5,5h-70a5,5,0,0,1,-5,-5v-12a5,5,0,0,1,5,-5z"></path><g id="node_text28" fill="black"><text id="kity_text_237" text-rendering="inherit" font-size="12" dy=".8em" y="1217.5000045140578" x="1320.5000421285608">线索二叉树</text></g></g><g id="minder_node31"><g id="node_expander29" display="none" style="cursor: pointer;"><path id="kity_path_500" fill="white" stroke="gray" d="M1214.5000403483689,1275.5000053405756A6,6,0,1,1,1202.5000403483689,1275.5000053405756A6,6,0,1,1,1214.5000403483689,1275.5000053405756"></path><path id="kity_path_501" fill="none" stroke="gray"></path></g><path id="node_outline30" fill="none" stroke="none" d="M1219.500040602682,1264.5000053405756h34a5,5,0,0,1,5,5v12a5,5,0,0,1,-5,5h-34a5,5,0,0,1,-5,-5v-12a5,5,0,0,1,5,-5z"></path><g id="node_text30" fill="black"><text id="kity_text_241" text-rendering="inherit" font-size="12" dy=".8em" y="1269.5000053405756" x="1224.500040602682">森林</text></g></g><g id="minder_node32"><g id="node_expander33" style="cursor: pointer;"><path id="kity_path_512" fill="white" stroke="gray" d="M1214.5000403483689,1379.500006993611A6,6,0,1,1,1202.5000403483689,1379.500006993611A6,6,0,1,1,1214.5000403483689,1379.500006993611"></path><path id="kity_path_513" fill="none" stroke="gray" d="M1204.0000403483689,1379.500006993611L1213.0000403483689,1379.500006993611"></path></g><path id="node_outline34" fill="none" stroke="none" d="M1219.500040602682,1368.500006993611h34a5,5,0,0,1,5,5v12a5,5,0,0,1,-5,5h-34a5,5,0,0,1,-5,-5v-12a5,5,0,0,1,5,-5z"></path><g id="node_text34" fill="black"><text id="kity_text_249" text-rendering="inherit" font-size="12" dy=".8em" y="1373.500006993611" x="1224.500040602682">应用</text></g></g><g id="minder_node33"><g id="node_expander30" display="none" style="cursor: pointer;"><path id="kity_path_503" fill="white" stroke="gray" d="M1298.500041683513,1327.500006167093A6,6,0,1,1,1286.500041683513,1327.500006167093A6,6,0,1,1,1298.500041683513,1327.500006167093"></path><path id="kity_path_504" fill="none" stroke="gray"></path></g><path id="node_outline31" fill="none" stroke="none" d="M1303.5000419378262,1316.500006167093h70a5,5,0,0,1,5,5v12a5,5,0,0,1,-5,5h-70a5,5,0,0,1,-5,-5v-12a5,5,0,0,1,5,-5z"></path><g id="node_text31" fill="black"><text id="kity_text_243" text-rendering="inherit" font-size="12" dy=".8em" y="1321.500006167093" x="1308.5000419378262">二叉排序树</text></g></g><g id="minder_node34"><g id="node_expander31" display="none" style="cursor: pointer;"><path id="kity_path_506" fill="white" stroke="gray" d="M1298.500041683513,1379.500006993611A6,6,0,1,1,1286.500041683513,1379.500006993611A6,6,0,1,1,1298.500041683513,1379.500006993611"></path><path id="kity_path_507" fill="none" stroke="gray"></path></g><path id="node_outline32" fill="none" stroke="none" d="M1303.5000419378262,1368.500006993611h70a5,5,0,0,1,5,5v12a5,5,0,0,1,-5,5h-70a5,5,0,0,1,-5,-5v-12a5,5,0,0,1,5,-5z"></path><g id="node_text32" fill="black"><text id="kity_text_245" text-rendering="inherit" font-size="12" dy=".8em" y="1373.500006993611" x="1308.5000419378262">平衡二叉树</text></g></g><g id="minder_node35"><g id="node_expander32" display="none" style="cursor: pointer;"><path id="kity_path_509" fill="white" stroke="gray" d="M1298.500041683513,1431.5000078201285A6,6,0,1,1,1286.500041683513,1431.5000078201285A6,6,0,1,1,1298.500041683513,1431.5000078201285"></path><path id="kity_path_510" fill="none" stroke="gray"></path></g><path id="node_outline33" fill="none" stroke="none" d="M1303.5000419378262,1420.5000078201285h58a5,5,0,0,1,5,5v12a5,5,0,0,1,-5,5h-58a5,5,0,0,1,-5,-5v-12a5,5,0,0,1,5,-5z"></path><g id="node_text33" fill="black"><text id="kity_text_247" text-rendering="inherit" font-size="12" dy=".8em" y="1425.5000078201285" x="1308.5000419378262">哈夫曼树</text></g></g><g id="minder_node36"><g id="node_expander46" style="cursor: pointer;"><path id="kity_path_551" fill="white" stroke="gray" d="M539.5000308116264,200.49998825391185A6,6,0,1,1,527.5000308116264,200.49998825391185A6,6,0,1,1,539.5000308116264,200.49998825391185"></path><path id="kity_path_552" fill="none" stroke="gray" d="M529.0000308116264,200.49998825391185L538.0000308116264,200.49998825391185"></path></g><path id="node_outline47" fill="rgb(238, 243, 246)" stroke="rgb(115, 161, 191)" d="M450.5000285704919,187.49998825391185h73a3,3,0,0,1,3,3v20a3,3,0,0,1,-3,3h-73a3,3,0,0,1,-3,-3v-20a3,3,0,0,1,3,-3z" stroke-width="1"></path><g id="node_text47" fill="black"><text id="kity_text_275" text-rendering="inherit" font-size="14" dy=".8em" y="193.49998825391185" x="467.5000285704919">5. 图</text></g></g><g id="minder_node37"><g id="node_expander35" display="none" style="cursor: pointer;"><path id="kity_path_518" fill="white" stroke="gray" d="M419.50002771218516,31.499985567729254A6,6,0,1,1,407.50002771218516,31.499985567729254A6,6,0,1,1,419.50002771218516,31.499985567729254"></path><path id="kity_path_519" fill="none" stroke="gray"></path></g><path id="node_outline36" fill="none" stroke="none" d="M344.5000266949326,20.499985567729254h58a5,5,0,0,1,5,5v12a5,5,0,0,1,-5,5h-58a5,5,0,0,1,-5,-5v-12a5,5,0,0,1,5,-5z"></path><g id="node_text36" fill="black"><text id="kity_text_253" text-rendering="inherit" font-size="12" dy=".8em" y="25.499985567729254" x="349.5000266949326">基本概念</text></g></g><g id="minder_node38"><g id="node_expander36" display="none" style="cursor: pointer;"><path id="kity_path_521" fill="white" stroke="gray" d="M419.50002771218516,83.499986394247A6,6,0,1,1,407.50002771218516,83.499986394247A6,6,0,1,1,419.50002771218516,83.499986394247"></path><path id="kity_path_522" fill="none" stroke="gray"></path></g><path id="node_outline37" fill="none" stroke="none" d="M344.5000266949326,72.499986394247h58a5,5,0,0,1,5,5v12a5,5,0,0,1,-5,5h-58a5,5,0,0,1,-5,-5v-12a5,5,0,0,1,5,-5z"></path><g id="node_text37" fill="black"><text id="kity_text_255" text-rendering="inherit" font-size="12" dy=".8em" y="77.499986394247" x="349.5000266949326">基本操作</text></g></g><g id="minder_node39"><g id="node_expander37" display="none" style="cursor: pointer;"><path id="kity_path_524" fill="white" stroke="gray" d="M419.50002771218516,135.49998722076464A6,6,0,1,1,407.50002771218516,135.49998722076464A6,6,0,1,1,419.50002771218516,135.49998722076464"></path><path id="kity_path_525" fill="none" stroke="gray"></path></g><path id="node_outline38" fill="none" stroke="none" d="M344.5000266949326,124.49998722076464h58a5,5,0,0,1,5,5v12a5,5,0,0,1,-5,5h-58a5,5,0,0,1,-5,-5v-12a5,5,0,0,1,5,-5z"></path><g id="node_text38" fill="black"><text id="kity_text_257" text-rendering="inherit" font-size="12" dy=".8em" y="129.49998722076464" x="349.5000266949326">存储结构</text></g></g><g id="minder_node40"><g id="node_expander40" style="cursor: pointer;"><path id="kity_path_533" fill="white" stroke="gray" d="M381.5000255187343,187.49998804728227A6,6,0,1,1,369.5000255187343,187.49998804728227A6,6,0,1,1,381.5000255187343,187.49998804728227"></path><path id="kity_path_534" fill="none" stroke="gray" d="M371.0000255187343,187.49998804728227L380.0000255187343,187.49998804728227"></path></g><path id="node_outline41" fill="none" stroke="none" d="M330.5000264724086,176.49998804728227h34a5,5,0,0,1,5,5v12a5,5,0,0,1,-5,5h-34a5,5,0,0,1,-5,-5v-12a5,5,0,0,1,5,-5z"></path><g id="node_text41" fill="black"><text id="kity_text_263" text-rendering="inherit" font-size="12" dy=".8em" y="181.49998804728227" x="335.5000264724086">遍历</text></g></g><g id="minder_node41"><g id="node_expander38" display="none" style="cursor: pointer;"><path id="kity_path_527" fill="white" stroke="gray" d="M297.5000261704118,161.49998763402357A6,6,0,1,1,285.5000261704118,161.49998763402357A6,6,0,1,1,297.5000261704118,161.49998763402357"></path><path id="kity_path_528" fill="none" stroke="gray"></path></g><path id="node_outline39" fill="none" stroke="none" d="M248.5000251690538,150.49998763402357h32a5,5,0,0,1,5,5v12a5,5,0,0,1,-5,5h-32a5,5,0,0,1,-5,-5v-12a5,5,0,0,1,5,-5z"></path><g id="node_text39" fill="black"><text id="kity_text_259" text-rendering="inherit" font-size="12" dy=".8em" y="155.49998763402357" x="253.5000251690538">BFS</text></g></g><g id="minder_node42"><g id="node_expander39" display="none" style="cursor: pointer;"><path id="kity_path_530" fill="white" stroke="gray" d="M297.5000261704118,213.4999884605412A6,6,0,1,1,285.5000261704118,213.4999884605412A6,6,0,1,1,297.5000261704118,213.4999884605412"></path><path id="kity_path_531" fill="none" stroke="gray"></path></g><path id="node_outline40" fill="none" stroke="none" d="M248.5000251690538,202.4999884605412h32a5,5,0,0,1,5,5v12a5,5,0,0,1,-5,5h-32a5,5,0,0,1,-5,-5v-12a5,5,0,0,1,5,-5z"></path><g id="node_text40" fill="black"><text id="kity_text_261" text-rendering="inherit" font-size="12" dy=".8em" y="207.4999884605412" x="253.5000251690538">DFS</text></g></g><g id="minder_node43"><g id="node_expander45" style="cursor: pointer;"><path id="kity_path_548" fill="white" stroke="gray" d="M321.50002456506,328.4999902884168A6,6,0,1,1,309.50002456506,328.4999902884168A6,6,0,1,1,321.50002456506,328.4999902884168"></path><path id="kity_path_549" fill="none" stroke="gray" d="M311.00002456506,328.4999902884168L320.00002456506,328.4999902884168"></path></g><path id="node_outline46" fill="none" stroke="none" d="M270.50002551873433,317.4999902884168h34a5,5,0,0,1,5,5v12a5,5,0,0,1,-5,5h-34a5,5,0,0,1,-5,-5v-12a5,5,0,0,1,5,-5z"></path><g id="node_text46" fill="black"><text id="kity_text_273" text-rendering="inherit" font-size="12" dy=".8em" y="322.4999902884168" x="275.50002551873433">应用</text></g></g><g id="minder_node44"><g id="node_expander41" display="none" style="cursor: pointer;"><path id="kity_path_536" fill="white" stroke="gray" d="M237.5000276009232,250.49998904864026A6,6,0,1,1,225.5000276009232,250.49998904864026A6,6,0,1,1,237.5000276009232,250.49998904864026"></path><path id="kity_path_537" fill="none" stroke="gray"></path></g><path id="node_outline42" fill="none" stroke="none" d="M104.50002288023552,239.49998904864026h116a5,5,0,0,1,5,5v12a5,5,0,0,1,-5,5h-116a5,5,0,0,1,-5,-5v-12a5,5,0,0,1,5,-5z"></path><g id="node_text42" fill="black"><text id="kity_text_265" text-rendering="inherit" font-size="12" dy=".8em" y="244.49998904864026" x="109.50002288023552">最小生成树（MST）</text></g></g><g id="minder_node45"><g id="node_expander42" display="none" style="cursor: pointer;"><path id="kity_path_539" fill="white" stroke="gray" d="M237.5000248193732,302.4999898751581A6,6,0,1,1,225.5000248193732,302.4999898751581A6,6,0,1,1,237.5000248193732,302.4999898751581"></path><path id="kity_path_540" fill="none" stroke="gray"></path></g><path id="node_outline43" fill="none" stroke="none" d="M162.50002380212067,291.4999898751581h58a5,5,0,0,1,5,5v12a5,5,0,0,1,-5,5h-58a5,5,0,0,1,-5,-5v-12a5,5,0,0,1,5,-5z"></path><g id="node_text43" fill="black"><text id="kity_text_267" text-rendering="inherit" font-size="12" dy=".8em" y="296.4999898751581" x="167.50002380212067">最短路径</text></g></g><g id="minder_node46"><g id="node_expander43" display="none" style="cursor: pointer;"><path id="kity_path_542" fill="white" stroke="gray" d="M237.5000248193732,354.4999907016758A6,6,0,1,1,225.5000248193732,354.4999907016758A6,6,0,1,1,237.5000248193732,354.4999907016758"></path><path id="kity_path_543" fill="none" stroke="gray"></path></g><path id="node_outline44" fill="none" stroke="none" d="M162.50002380212067,343.4999907016758h58a5,5,0,0,1,5,5v12a5,5,0,0,1,-5,5h-58a5,5,0,0,1,-5,-5v-12a5,5,0,0,1,5,-5z"></path><g id="node_text44" fill="black"><text id="kity_text_269" text-rendering="inherit" font-size="12" dy=".8em" y="348.4999907016758" x="167.50002380212067">拓扑排序</text></g></g><g id="minder_node47"><g id="node_expander44" display="none" style="cursor: pointer;"><path id="kity_path_545" fill="white" stroke="gray" d="M237.5000248193732,406.4999915281934A6,6,0,1,1,225.5000248193732,406.4999915281934A6,6,0,1,1,237.5000248193732,406.4999915281934"></path><path id="kity_path_546" fill="none" stroke="gray"></path></g><path id="node_outline45" fill="none" stroke="none" d="M162.50002380212067,395.4999915281934h58a5,5,0,0,1,5,5v12a5,5,0,0,1,-5,5h-58a5,5,0,0,1,-5,-5v-12a5,5,0,0,1,5,-5z"></path><g id="node_text45" fill="black"><text id="kity_text_271" text-rendering="inherit" font-size="12" dy=".8em" y="400.4999915281934" x="167.50002380212067">关键路径</text></g></g><g id="minder_node48"><g id="node_expander62" style="cursor: pointer;"><path id="kity_path_599" fill="white" stroke="gray" d="M539.5000264406193,756.4999970912933A6,6,0,1,1,527.5000264406193,756.4999970912933A6,6,0,1,1,539.5000264406193,756.4999970912933"></path><path id="kity_path_600" fill="none" stroke="gray" d="M529.0000264406193,756.4999970912933L538.0000264406193,756.4999970912933"></path></g><path id="node_outline63" fill="rgb(238, 243, 246)" stroke="rgb(115, 161, 191)" d="M436.50002834796794,743.4999970912933h87a3,3,0,0,1,3,3v20a3,3,0,0,1,-3,3h-87a3,3,0,0,1,-3,-3v-20a3,3,0,0,1,3,-3z" stroke-width="1"></path><g id="node_text63" fill="black"><text id="kity_text_307" text-rendering="inherit" font-size="14" dy=".8em" y="749.4999970912933" x="453.50002834796794">6. 查找</text></g></g><g id="minder_node49"><g id="node_expander47" display="none" style="cursor: pointer;"><path id="kity_path_554" fill="white" stroke="gray" d="M405.50002748966114,509.4999931653342A6,6,0,1,1,393.50002748966114,509.4999931653342A6,6,0,1,1,405.50002748966114,509.4999931653342"></path><path id="kity_path_555" fill="none" stroke="gray"></path></g><path id="node_outline48" fill="none" stroke="none" d="M330.5000264724086,498.4999931653342h58a5,5,0,0,1,5,5v12a5,5,0,0,1,-5,5h-58a5,5,0,0,1,-5,-5v-12a5,5,0,0,1,5,-5z"></path><g id="node_text48" fill="black"><text id="kity_text_277" text-rendering="inherit" font-size="12" dy=".8em" y="503.4999931653342" x="335.5000264724086">基本概念</text></g></g><g id="minder_node50"><g id="node_expander51" style="cursor: pointer;"><path id="kity_path_566" fill="white" stroke="gray" d="M405.5000259002039,613.4999948183696A6,6,0,1,1,393.5000259002039,613.4999948183696A6,6,0,1,1,405.5000259002039,613.4999948183696"></path><path id="kity_path_567" fill="none" stroke="gray" d="M395.0000259002039,613.4999948183696L404.0000259002039,613.4999948183696"></path></g><path id="node_outline52" fill="none" stroke="none" d="M354.50002685387824,602.4999948183696h34a5,5,0,0,1,5,5v12a5,5,0,0,1,-5,5h-34a5,5,0,0,1,-5,-5v-12a5,5,0,0,1,5,-5z"></path><g id="node_text52" fill="black"><text id="kity_text_285" text-rendering="inherit" font-size="12" dy=".8em" y="607.4999948183696" x="359.50002685387824">类型</text></g></g><g id="minder_node51"><g id="node_expander48" display="none" style="cursor: pointer;"><path id="kity_path_557" fill="white" stroke="gray" d="M321.5000261545172,561.4999939918519A6,6,0,1,1,309.5000261545172,561.4999939918519A6,6,0,1,1,321.5000261545172,561.4999939918519"></path><path id="kity_path_558" fill="none" stroke="gray"></path></g><path id="node_outline49" fill="none" stroke="none" d="M246.50002513726463,550.4999939918519h58a5,5,0,0,1,5,5v12a5,5,0,0,1,-5,5h-58a5,5,0,0,1,-5,-5v-12a5,5,0,0,1,5,-5z"></path><g id="node_text49" fill="black"><text id="kity_text_279" text-rendering="inherit" font-size="12" dy=".8em" y="555.4999939918519" x="251.50002513726463">顺序查找</text></g></g><g id="minder_node52"><g id="node_expander49" display="none" style="cursor: pointer;"><path id="kity_path_560" fill="white" stroke="gray" d="M321.5000261545172,613.4999948183696A6,6,0,1,1,309.5000261545172,613.4999948183696A6,6,0,1,1,321.5000261545172,613.4999948183696"></path><path id="kity_path_561" fill="none" stroke="gray"></path></g><path id="node_outline50" fill="none" stroke="none" d="M246.50002513726463,602.4999948183696h58a5,5,0,0,1,5,5v12a5,5,0,0,1,-5,5h-58a5,5,0,0,1,-5,-5v-12a5,5,0,0,1,5,-5z"></path><g id="node_text50" fill="black"><text id="kity_text_281" text-rendering="inherit" font-size="12" dy=".8em" y="607.4999948183696" x="251.50002513726463">折半查找</text></g></g><g id="minder_node53"><g id="node_expander50" display="none" style="cursor: pointer;"><path id="kity_path_563" fill="white" stroke="gray" d="M321.5000261545172,665.4999956448872A6,6,0,1,1,309.5000261545172,665.4999956448872A6,6,0,1,1,321.5000261545172,665.4999956448872"></path><path id="kity_path_564" fill="none" stroke="gray"></path></g><path id="node_outline51" fill="none" stroke="none" d="M246.50002513726463,654.4999956448872h58a5,5,0,0,1,5,5v12a5,5,0,0,1,-5,5h-58a5,5,0,0,1,-5,-5v-12a5,5,0,0,1,5,-5z"></path><g id="node_text51" fill="black"><text id="kity_text_283" text-rendering="inherit" font-size="12" dy=".8em" y="659.4999956448872" x="251.50002513726463">分块查找</text></g></g><g id="minder_node54"><g id="node_expander54" style="cursor: pointer;"><path id="kity_path_575" fill="white" stroke="gray" d="M301.50002464453286,743.4999968846638A6,6,0,1,1,289.50002464453286,743.4999968846638A6,6,0,1,1,301.50002464453286,743.4999968846638"></path><path id="kity_path_576" fill="none" stroke="gray" d="M291.00002464453286,743.4999968846638L300.00002464453286,743.4999968846638"></path></g><path id="node_outline55" fill="none" stroke="none" d="M228.50002485116232,732.4999968846638h56a5,5,0,0,1,5,5v12a5,5,0,0,1,-5,5h-56a5,5,0,0,1,-5,-5v-12a5,5,0,0,1,5,-5z"></path><g id="node_text55" fill="black"><text id="kity_text_291" text-rendering="inherit" font-size="12" dy=".8em" y="737.4999968846638" x="233.50002485116232">B树B+树</text></g></g><g id="minder_node55"><g id="node_expander52" display="none" style="cursor: pointer;"><path id="kity_path_569" fill="white" stroke="gray" d="M195.5000241518012,717.499996471405A6,6,0,1,1,183.5000241518012,717.499996471405A6,6,0,1,1,195.5000241518012,717.499996471405"></path><path id="kity_path_570" fill="none" stroke="gray"></path></g><path id="node_outline53" fill="none" stroke="none" d="M120.50002313454866,706.499996471405h58a5,5,0,0,1,5,5v12a5,5,0,0,1,-5,5h-58a5,5,0,0,1,-5,-5v-12a5,5,0,0,1,5,-5z"></path><g id="node_text53" fill="black"><text id="kity_text_287" text-rendering="inherit" font-size="12" dy=".8em" y="711.499996471405" x="125.50002313454866">基本概念</text></g></g><g id="minder_node56"><g id="node_expander53" display="none" style="cursor: pointer;"><path id="kity_path_572" fill="white" stroke="gray" d="M195.5000241518012,769.4999972979226A6,6,0,1,1,183.5000241518012,769.4999972979226A6,6,0,1,1,195.5000241518012,769.4999972979226"></path><path id="kity_path_573" fill="none" stroke="gray"></path></g><path id="node_outline54" fill="none" stroke="none" d="M120.50002313454866,758.4999972979226h58a5,5,0,0,1,5,5v12a5,5,0,0,1,-5,5h-58a5,5,0,0,1,-5,-5v-12a5,5,0,0,1,5,-5z"></path><g id="node_text54" fill="black"><text id="kity_text_289" text-rendering="inherit" font-size="12" dy=".8em" y="763.4999972979226" x="125.50002313454866">基本操作</text></g></g><g id="minder_node57"><g id="node_expander58" style="cursor: pointer;"><path id="kity_path_587" fill="white" stroke="gray" d="M387.50002561410173,840.4999984264372A6,6,0,1,1,375.50002561410173,840.4999984264372A6,6,0,1,1,387.50002561410173,840.4999984264372"></path><path id="kity_path_588" fill="none" stroke="gray" d="M377.00002561410173,840.4999984264372L386.00002561410173,840.4999984264372"></path></g><path id="node_outline59" fill="none" stroke="none" d="M336.50002656777605,829.4999984264372h34a5,5,0,0,1,5,5v12a5,5,0,0,1,-5,5h-34a5,5,0,0,1,-5,-5v-12a5,5,0,0,1,5,-5z"></path><g id="node_text59" fill="#ff0000"><text id="kity_text_299" text-rendering="inherit" font-size="12" dy=".8em" y="834.4999984264372" x="341.50002656777605">散列</text></g></g><g id="minder_node58"><g id="node_expander55" display="none" style="cursor: pointer;"><path id="kity_path_578" fill="white" stroke="gray" d="M303.50002586841487,788.4999975999195A6,6,0,1,1,291.50002586841487,788.4999975999195A6,6,0,1,1,303.50002586841487,788.4999975999195"></path><path id="kity_path_579" fill="none" stroke="gray"></path></g><path id="node_outline56" fill="none" stroke="none" d="M228.50002485116232,777.4999975999195h58a5,5,0,0,1,5,5v12a5,5,0,0,1,-5,5h-58a5,5,0,0,1,-5,-5v-12a5,5,0,0,1,5,-5z"></path><g id="node_text56" fill="black"><text id="kity_text_293" text-rendering="inherit" font-size="12" dy=".8em" y="782.4999975999195" x="233.50002485116232">基本概念</text></g></g><g id="minder_node59"><g id="node_expander56" display="none" style="cursor: pointer;"><path id="kity_path_581" fill="white" stroke="gray" d="M303.50002586841487,840.4999984264372A6,6,0,1,1,291.50002586841487,840.4999984264372A6,6,0,1,1,303.50002586841487,840.4999984264372"></path><path id="kity_path_582" fill="none" stroke="gray"></path></g><path id="node_outline57" fill="none" stroke="none" d="M228.50002485116232,829.4999984264372h58a5,5,0,0,1,5,5v12a5,5,0,0,1,-5,5h-58a5,5,0,0,1,-5,-5v-12a5,5,0,0,1,5,-5z"></path><g id="node_text57" fill="black"><text id="kity_text_295" text-rendering="inherit" font-size="12" dy=".8em" y="834.4999984264372" x="233.50002485116232">散列函数</text></g></g><g id="minder_node60"><g id="node_expander57" display="none" style="cursor: pointer;"><path id="kity_path_584" fill="white" stroke="gray" d="M303.50002586841487,892.4999992529549A6,6,0,1,1,291.50002586841487,892.4999992529549A6,6,0,1,1,303.50002586841487,892.4999992529549"></path><path id="kity_path_585" fill="none" stroke="gray"></path></g><path id="node_outline58" fill="none" stroke="none" d="M228.50002485116232,881.4999992529549h58a5,5,0,0,1,5,5v12a5,5,0,0,1,-5,5h-58a5,5,0,0,1,-5,-5v-12a5,5,0,0,1,5,-5z"></path><g id="node_text58" fill="black"><text id="kity_text_297" text-rendering="inherit" font-size="12" dy=".8em" y="886.4999992529549" x="233.50002485116232">性能分析</text></g></g><g id="minder_node61"><g id="node_expander61" style="cursor: pointer;"><path id="kity_path_596" fill="white" stroke="gray" d="M378.50002944469344,998.5000009377794A6,6,0,1,1,366.50002944469344,998.5000009377794A6,6,0,1,1,378.50002944469344,998.5000009377794"></path><path id="kity_path_597" fill="none" stroke="gray" d="M368.00002944469344,998.5000009377794L377.00002944469344,998.5000009377794"></path></g><path id="node_outline62" fill="none" stroke="none" d="M267.5000254710506,987.5000009377794h94a5,5,0,0,1,5,5v12a5,5,0,0,1,-5,5h-94a5,5,0,0,1,-5,-5v-12a5,5,0,0,1,5,-5z"></path><g id="node_text62" fill="black"><text id="kity_text_305" text-rendering="inherit" font-size="12" dy=".8em" y="992.5000009377794" x="272.5000254710506">字符串模式匹配</text></g></g><g id="minder_node62"><g id="node_expander59" display="none" style="cursor: pointer;"><path id="kity_path_590" fill="white" stroke="gray" d="M234.50002795060368,972.5000005245206A6,6,0,1,1,222.50002795060368,972.5000005245206A6,6,0,1,1,234.50002795060368,972.5000005245206"></path><path id="kity_path_591" fill="none" stroke="gray"></path></g><path id="node_outline60" fill="none" stroke="none" d="M111.50002299149742,961.5000005245206h106a5,5,0,0,1,5,5v12a5,5,0,0,1,-5,5h-106a5,5,0,0,1,-5,-5v-12a5,5,0,0,1,5,-5z"></path><g id="node_text60" fill="black"><text id="kity_text_301" text-rendering="inherit" font-size="12" dy=".8em" y="966.5000005245206" x="116.50002299149742">简单模式匹配算法</text></g></g><g id="minder_node63"><g id="node_expander60" display="none" style="cursor: pointer;"><path id="kity_path_593" fill="white" stroke="gray" d="M234.50002357959664,1024.5000013510382A6,6,0,1,1,222.50002357959664,1024.5000013510382A6,6,0,1,1,234.50002357959664,1024.5000013510382"></path><path id="kity_path_594" fill="none" stroke="gray"></path></g><path id="node_outline61" fill="none" stroke="none" d="M161.5000237862261,1013.5000013510382h56a5,5,0,0,1,5,5v12a5,5,0,0,1,-5,5h-56a5,5,0,0,1,-5,-5v-12a5,5,0,0,1,5,-5z"></path><g id="node_text61" fill="#ff0000"><text id="kity_text_303" text-rendering="inherit" font-size="12" dy=".8em" y="1018.5000013510382" x="166.5000237862261">KMP算法</text></g></g><g id="minder_node64"><g id="node_expander77" style="cursor: pointer;"><path id="kity_path_644" fill="white" stroke="gray" d="M539.5000264406193,1351.5000065485629A6,6,0,1,1,527.5000264406193,1351.5000065485629A6,6,0,1,1,539.5000264406193,1351.5000065485629"></path><path id="kity_path_645" fill="none" stroke="gray" d="M529.0000264406193,1351.5000065485629L538.0000264406193,1351.5000065485629"></path></g><path id="node_outline78" fill="rgb(238, 243, 246)" stroke="rgb(115, 161, 191)" d="M436.50002834796794,1338.5000065485629h87a3,3,0,0,1,3,3v20a3,3,0,0,1,-3,3h-87a3,3,0,0,1,-3,-3v-20a3,3,0,0,1,3,-3z" stroke-width="1"></path><g id="node_text78" fill="black"><text id="kity_text_337" text-rendering="inherit" font-size="14" dy=".8em" y="1344.5000065485629" x="453.50002834796794">7. 排序</text></g></g><g id="minder_node65"><g id="node_expander63" display="none" style="cursor: pointer;"><path id="kity_path_602" fill="white" stroke="gray" d="M405.50002748966114,1091.5000024159744A6,6,0,1,1,393.50002748966114,1091.5000024159744A6,6,0,1,1,405.50002748966114,1091.5000024159744"></path><path id="kity_path_603" fill="none" stroke="gray"></path></g><path id="node_outline64" fill="none" stroke="none" d="M330.5000264724086,1080.5000024159744h58a5,5,0,0,1,5,5v12a5,5,0,0,1,-5,5h-58a5,5,0,0,1,-5,-5v-12a5,5,0,0,1,5,-5z"></path><g id="node_text64" fill="black"><text id="kity_text_309" text-rendering="inherit" font-size="12" dy=".8em" y="1085.5000024159744" x="335.5000264724086">基本概念</text></g></g><g id="minder_node66"><g id="node_expander67" style="cursor: pointer;"><path id="kity_path_614" fill="white" stroke="gray" d="M405.50002748966114,1195.5000040690097A6,6,0,1,1,393.50002748966114,1195.5000040690097A6,6,0,1,1,405.50002748966114,1195.5000040690097"></path><path id="kity_path_615" fill="none" stroke="gray" d="M395.00002748966114,1195.5000040690097L404.00002748966114,1195.5000040690097"></path></g><path id="node_outline68" fill="none" stroke="none" d="M330.5000264724086,1184.5000040690097h58a5,5,0,0,1,5,5v12a5,5,0,0,1,-5,5h-58a5,5,0,0,1,-5,-5v-12a5,5,0,0,1,5,-5z"></path><g id="node_text68" fill="black"><text id="kity_text_317" text-rendering="inherit" font-size="12" dy=".8em" y="1189.5000040690097" x="335.5000264724086">插入排序</text></g></g><g id="minder_node67"><g id="node_expander64" display="none" style="cursor: pointer;"><path id="kity_path_605" fill="white" stroke="gray" d="M297.50002736250457,1143.500003242492A6,6,0,1,1,285.50002736250457,1143.500003242492A6,6,0,1,1,297.50002736250457,1143.500003242492"></path><path id="kity_path_606" fill="none" stroke="gray"></path></g><path id="node_outline65" fill="none" stroke="none" d="M198.50002437432516,1132.500003242492h82a5,5,0,0,1,5,5v12a5,5,0,0,1,-5,5h-82a5,5,0,0,1,-5,-5v-12a5,5,0,0,1,5,-5z"></path><g id="node_text65" fill="black"><text id="kity_text_311" text-rendering="inherit" font-size="12" dy=".8em" y="1137.500003242492" x="203.50002437432516">直接插入排序</text></g></g><g id="minder_node68"><g id="node_expander65" display="none" style="cursor: pointer;"><path id="kity_path_608" fill="white" stroke="gray" d="M297.50002736250457,1195.5000040690097A6,6,0,1,1,285.50002736250457,1195.5000040690097A6,6,0,1,1,297.50002736250457,1195.5000040690097"></path><path id="kity_path_609" fill="none" stroke="gray"></path></g><path id="node_outline66" fill="none" stroke="none" d="M198.50002437432516,1184.5000040690097h82a5,5,0,0,1,5,5v12a5,5,0,0,1,-5,5h-82a5,5,0,0,1,-5,-5v-12a5,5,0,0,1,5,-5z"></path><g id="node_text66" fill="black"><text id="kity_text_313" text-rendering="inherit" font-size="12" dy=".8em" y="1189.5000040690097" x="203.50002437432516">折半插入排序</text></g></g><g id="minder_node69"><g id="node_expander66" display="none" style="cursor: pointer;"><path id="kity_path_611" fill="white" stroke="gray" d="M297.50002120335813,1247.5000048955276A6,6,0,1,1,285.50002120335813,1247.5000048955276A6,6,0,1,1,297.50002120335813,1247.5000048955276"></path><path id="kity_path_612" fill="none" stroke="gray"></path></g><path id="node_outline67" fill="none" stroke="none" d="M171.5000239451718,1236.5000048955276h109a5,5,0,0,1,5,5v12a5,5,0,0,1,-5,5h-109a5,5,0,0,1,-5,-5v-12a5,5,0,0,1,5,-5z"></path><g id="node_text67" fill="black"><text id="kity_text_315" text-rendering="inherit" font-size="12" dy=".8em" y="1241.5000048955276" x="176.5000239451718">希尔(Shell)排序</text></g></g><g id="minder_node70"><g id="node_expander70" style="cursor: pointer;"><path id="kity_path_623" fill="white" stroke="gray" d="M208.50002435843066,1305.5000058174128A6,6,0,1,1,196.50002435843066,1305.5000058174128A6,6,0,1,1,208.50002435843066,1305.5000058174128"></path><path id="kity_path_624" fill="none" stroke="gray" d="M198.00002435843066,1305.5000058174128L207.00002435843066,1305.5000058174128"></path></g><path id="node_outline71" fill="none" stroke="none" d="M133.50002334117812,1294.5000058174128h58a5,5,0,0,1,5,5v12a5,5,0,0,1,-5,5h-58a5,5,0,0,1,-5,-5v-12a5,5,0,0,1,5,-5z"></path><g id="node_text71" fill="black"><text id="kity_text_323" text-rendering="inherit" font-size="12" dy=".8em" y="1299.5000058174128" x="138.50002334117812">交换排序</text></g></g><g id="minder_node71"><g id="node_expander68" display="none" style="cursor: pointer;"><path id="kity_path_617" fill="white" stroke="gray" d="M100.50002105235978,1279.5000054041539A6,6,0,1,1,88.50002105235978,1279.5000054041539A6,6,0,1,1,100.50002105235978,1279.5000054041539"></path><path id="kity_path_618" fill="none" stroke="gray"></path></g><path id="node_outline69" fill="none" stroke="none" d="M49.5000220060341,1268.5000054041539h34a5,5,0,0,1,5,5v12a5,5,0,0,1,-5,5h-34a5,5,0,0,1,-5,-5v-12a5,5,0,0,1,5,-5z"></path><g id="node_text69" fill="black"><text id="kity_text_319" text-rendering="inherit" font-size="12" dy=".8em" y="1273.5000054041539" x="54.5000220060341">冒泡</text></g></g><g id="minder_node72"><g id="node_expander69" display="none" style="cursor: pointer;"><path id="kity_path_620" fill="white" stroke="gray" d="M100.50002264181693,1331.5000062306717A6,6,0,1,1,88.50002264181693,1331.5000062306717A6,6,0,1,1,100.50002264181693,1331.5000062306717"></path><path id="kity_path_621" fill="none" stroke="gray"></path></g><path id="node_outline70" fill="none" stroke="none" d="M25.500021624564397,1320.5000062306717h58a5,5,0,0,1,5,5v12a5,5,0,0,1,-5,5h-58a5,5,0,0,1,-5,-5v-12a5,5,0,0,1,5,-5z"></path><g id="node_text70" fill="#ff0000"><text id="kity_text_321" text-rendering="inherit" font-size="12" dy=".8em" y="1325.5000062306717" x="30.500021624564397">快速排序</text></g></g><g id="minder_node73"><g id="node_expander73" style="cursor: pointer;"><path id="kity_path_632" fill="white" stroke="gray" d="M242.50002489884605,1430.500007804234A6,6,0,1,1,230.50002489884605,1430.500007804234A6,6,0,1,1,242.50002489884605,1430.500007804234"></path><path id="kity_path_633" fill="none" stroke="gray" d="M232.00002489884605,1430.500007804234L241.00002489884605,1430.500007804234"></path></g><path id="node_outline74" fill="none" stroke="none" d="M167.5000238815935,1419.500007804234h58a5,5,0,0,1,5,5v12a5,5,0,0,1,-5,5h-58a5,5,0,0,1,-5,-5v-12a5,5,0,0,1,5,-5z"></path><g id="node_text74" fill="black"><text id="kity_text_329" text-rendering="inherit" font-size="12" dy=".8em" y="1424.500007804234" x="172.5000238815935">选择排序</text></g></g><g id="minder_node74"><g id="node_expander71" display="none" style="cursor: pointer;"><path id="kity_path_626" fill="white" stroke="gray" d="M134.50002477168937,1404.500007390975A6,6,0,1,1,122.50002477168937,1404.500007390975A6,6,0,1,1,134.50002477168937,1404.500007390975"></path><path id="kity_path_627" fill="none" stroke="gray"></path></g><path id="node_outline72" fill="none" stroke="none" d="M35.500021783509965,1393.500007390975h82a5,5,0,0,1,5,5v12a5,5,0,0,1,-5,5h-82a5,5,0,0,1,-5,-5v-12a5,5,0,0,1,5,-5z"></path><g id="node_text72" fill="black"><text id="kity_text_325" text-rendering="inherit" font-size="12" dy=".8em" y="1398.500007390975" x="40.500021783509965">简单选择排序</text></g></g><g id="minder_node75"><g id="node_expander72" display="none" style="cursor: pointer;"><path id="kity_path_629" fill="white" stroke="gray" d="M134.5000223875038,1456.500008217493A6,6,0,1,1,122.5000223875038,1456.500008217493A6,6,0,1,1,134.5000223875038,1456.500008217493"></path><path id="kity_path_630" fill="none" stroke="gray"></path></g><path id="node_outline73" fill="none" stroke="none" d="M71.50002235571469,1445.500008217493h46a5,5,0,0,1,5,5v12a5,5,0,0,1,-5,5h-46a5,5,0,0,1,-5,-5v-12a5,5,0,0,1,5,-5z"></path><g id="node_text73" fill="#ff0000"><text id="kity_text_327" text-rendering="inherit" font-size="12" dy=".8em" y="1450.500008217493" x="76.50002235571469">堆排序</text></g></g><g id="minder_node76"><g id="node_expander74" display="none" style="cursor: pointer;"><path id="kity_path_635" fill="white" stroke="gray" d="M278.5000254710506,1505.5000089963269A6,6,0,1,1,266.5000254710506,1505.5000089963269A6,6,0,1,1,278.5000254710506,1505.5000089963269"></path><path id="kity_path_636" fill="none" stroke="gray"></path></g><path id="node_outline75" fill="none" stroke="none" d="M203.50002445379806,1494.5000089963269h58a5,5,0,0,1,5,5v12a5,5,0,0,1,-5,5h-58a5,5,0,0,1,-5,-5v-12a5,5,0,0,1,5,-5z"></path><g id="node_text75" fill="#ff0000"><text id="kity_text_331" text-rendering="inherit" font-size="12" dy=".8em" y="1499.5000089963269" x="208.50002445379806">归并排序</text></g></g><g id="minder_node77"><g id="node_expander75" display="none" style="cursor: pointer;"><path id="kity_path_638" fill="white" stroke="gray" d="M288.5000256299963,1566.5000099658957A6,6,0,1,1,276.5000256299963,1566.5000099658957A6,6,0,1,1,288.5000256299963,1566.5000099658957"></path><path id="kity_path_639" fill="none" stroke="gray"></path></g><path id="node_outline76" fill="none" stroke="none" d="M213.50002461274374,1555.5000099658957h58a5,5,0,0,1,5,5v12a5,5,0,0,1,-5,5h-58a5,5,0,0,1,-5,-5v-12a5,5,0,0,1,5,-5z"></path><g id="node_text76" fill="black"><text id="kity_text_333" text-rendering="inherit" font-size="12" dy=".8em" y="1560.5000099658957" x="218.50002461274374">基数排序</text></g></g><g id="minder_node78"><g id="node_expander76" display="none" style="cursor: pointer;"><path id="kity_path_641" fill="white" stroke="gray" d="M284.50002556641806,1626.5000109195698A6,6,0,1,1,272.50002556641806,1626.5000109195698A6,6,0,1,1,284.50002556641806,1626.5000109195698"></path><path id="kity_path_642" fill="none" stroke="gray"></path></g><path id="node_outline77" fill="none" stroke="none" d="M209.50002454916552,1615.5000109195698h58a5,5,0,0,1,5,5v12a5,5,0,0,1,-5,5h-58a5,5,0,0,1,-5,-5v-12a5,5,0,0,1,5,-5z"></path><g id="node_text77" fill="black"><text id="kity_text_335" text-rendering="inherit" font-size="12" dy=".8em" y="1620.5000109195698" x="214.50002454916552">外部排序</text></g></g></g></g></svg>